PathFileType	4	(X/Y/Z)	Kaydara	
DataRate	CameraRate	NumFrames	NumMarkers	Units	OrigDataRate	OrigDataStartFrame	OrigNumFrames	
240.00	240.00	4	72	mm	240.00	45	355	
Frame#	Time	Hips			RightUpLeg			RightLeg			RightFoot			RightFoot_End			LeftUpLeg			LeftLeg			LeftFoot			LeftFoot_End			Spine			Spine1			Spine2			Spine3			Neck			Head			Head_End			RightShoulder			RightArm			RightForeArm			RightHand			RightHandThumb1			RightHandThumb2			RightHandThumb3			RightHandThumb3_End			RightInHandIndex			RightHandIndex1			RightHandIndex2			RightHandIndex3			RightHandIndex3_End			RightInHandMiddle			RightHandMiddle1			RightHandMiddle2			RightHandMiddle3			RightHandMiddle3_End			RightInHandRing			RightHandRing1			RightHandRing2			RightHandRing3			RightHandRing3_End			RightInHandPinky			RightHandPinky1			RightHandPinky2			RightHandPinky3			RightHandPinky3_End			LeftShoulder			LeftArm			LeftForeArm			LeftHand			LeftHandThumb1			LeftHandThumb2			LeftHandThumb3			LeftHandThumb3_End			LeftInHandIndex			LeftHandIndex1			LeftHandIndex2			LeftHandIndex3			LeftHandIndex3_End			LeftInHandMiddle			LeftHandMiddle1			LeftHandMiddle2			LeftHandMiddle3			LeftHandMiddle3_End			LeftInHandRing			LeftHandRing1			LeftHandRing2			LeftHandRing3			LeftHandRing3_End			LeftInHandPinky			LeftHandPinky1			LeftHandPinky2			LeftHandPinky3			LeftHandPinky3_End			
		X1	Y1	Z1	X2	Y2	Z2	X3	Y3	Z3	X4	Y4	Z4	X5	Y5	Z5	X6	Y6	Z6	X7	Y7	Z7	X8	Y8	Z8	X9	Y9	Z9	X10	Y10	Z10	X11	Y11	Z11	X12	Y12	Z12	X13	Y13	Z13	X14	Y14	Z14	X15	Y15	Z15	X16	Y16	Z16	X17	Y17	Z17	X18	Y18	Z18	X19	Y19	Z19	X20	Y20	Z20	X21	Y21	Z21	X22	Y22	Z22	X23	Y23	Z23	X24	Y24	Z24	X25	Y25	Z25	X26	Y26	Z26	X27	Y27	Z27	X28	Y28	Z28	X29	Y29	Z29	X30	Y30	Z30	X31	Y31	Z31	X32	Y32	Z32	X33	Y33	Z33	X34	Y34	Z34	X35	Y35	Z35	X36	Y36	Z36	X37	Y37	Z37	X38	Y38	Z38	X39	Y39	Z39	X40	Y40	Z40	X41	Y41	Z41	X42	Y42	Z42	X43	Y43	Z43	X44	Y44	Z44	X45	Y45	Z45	X46	Y46	Z46	X47	Y47	Z47	X48	Y48	Z48	X49	Y49	Z49	X50	Y50	Z50	X51	Y51	Z51	X52	Y52	Z52	X53	Y53	Z53	X54	Y54	Z54	X55	Y55	Z55	X56	Y56	Z56	X57	Y57	Z57	X58	Y58	Z58	X59	Y59	Z59	X60	Y60	Z60	X61	Y61	Z61	X62	Y62	Z62	X63	Y63	Z63	X64	Y64	Z64	X65	Y65	Z65	X66	Y66	Z66	X67	Y67	Z67	X68	Y68	Z68	X69	Y69	Z69	X70	Y70	Z70	X71	Y71	Z71	X72	Y72	Z72	

45	0.183	-78.98710000000028	906.651	56.2195	-18.155000000000655	881.35865	-10.13362	-104.88895000000048	480.66733	-95.27811	-104.19969000000037	99.39121	-174.44597	-178.4436599999999	23.376489999999997	-15.549129999999998	-130.47868999999992	903.9749099999999	135.01801	-203.42329000000063	502.18261	228.34989	-259.29357999999957	68.98500999999999	293.81729	-390.0376100000003	-8.581330000000001	177.93774	-122.77880000000005	1031.7841900000003	2.3659399999999997	-174.2726700000003	1097.86957	-46.879819999999995	-236.19707999999991	1157.77178	-99.86604000000001	-302.75464999999986	1206.3804	-151.36882999999997	-374.0989900000004	1258.56318	-205.78245999999996	-439.87895000000026	1306.3308400000005	-254.23459000000003	-557.1386500000008	1405.2040699999998	-297.98958	-337.1732400000001	1232.00756	-214.24876000000006	-331.8448099999996	1161.12497	-319.51204000000007	-368.54399999999987	913.27804	-232.06964	-407.43615000000045	670.8337899999999	-147.77065999999996	-426.3279300000004	638.5506399999999	-161.83552000000003	-456.35988	619.1052200000001	-153.10539999999997	-475.7725900000005	605.97934	-142.84098	-490.6715800000002	595.39268	-130.70401000000004	-421.3423900000007	635.32317	-149.21529	-442.8134199999995	590.2029	-131.17744	-464.8924299999999	568.18605	-112.79918999999995	-482.09367999999995	562.81059	-102.98425999999995	-498.6749599999994	563.96829	-95.947	-416.8503499999997	638.47081	-138.18431000000004	-435.36077000000023	596.1617399999999	-114.62572	-458.7999099999997	572.7103800000001	-93.16710999999998	-479.23902	566.5002599999999	-80.65188999999998	-497.22951999999987	567.9007800000002	-72.62425999999999	-413.05081000000064	641.74449	-130.87942000000004	-426.1133	606.37186	-103.50758000000002	-445.84673999999995	586.5854399999998	-83.40568000000002	-465.19218	580.94255	-70.59107	-481.93259000000035	582.4239600000002	-62.69112999999999	-408.66416000000027	647.6245700000001	-122.76049999999998	-417.68579000000045	618.4508	-92.73875999999996	-432.34508000000005	603.78169	-74.57923	-445.90304000000015	600.23419	-64.23442	-460.41424000000006	601.8736300000002	-56.66212999999999	-363.6271800000004	1251.5356	-159.80866000000003	-388.1974599999994	1240.17608	-34.27082999999998	-322.4856399999999	991.8329800000001	-97.70972000000002	-261.19493000000057	742.4037100000002	-131.15072000000006	-293.47289	719.9110200000001	-138.16028999999997	-306.42720999999983	699.4796899999999	-165.92725000000002	-311.24269000000004	683.77718	-185.54208999999997	-311.6591100000005	669.4255800000001	-202.13190000000006	-282.4172699999999	711.41116	-137.89972	-294.66021	663.56621	-157.47469000000004	-297.5182399999994	636.42317	-181.24590999999995	-298.66335999999956	627.8387900000001	-199.84990999999997	-299.18505000000005	626.32567	-217.8288	-270.2826500000001	709.3594399999998	-138.45672000000005	-275.66204000000016	661.58139	-157.84794999999997	-277.1328000000003	631.8550899999999	-183.80975	-277.7235500000006	621.44663	-206.26567999999997	-277.90993999999955	619.76587	-225.94315	-261.4295599999996	709.0492000000002	-138.25337999999996	-258.66031999999996	665.7224000000001	-155.17048000000003	-258.2490600000001	639.7788100000001	-177.79259000000002	-257.9197100000001	629.7209800000002	-199.44976999999994	-257.6688699999995	628.1321000000002	-217.94996999999998	-250.6157000000003	710.7207900000001	-138.21872	-241.5218500000001	671.7228699999998	-153.39332	-238.5628200000001	651.08468	-171.42537	-237.05051000000003	643.81447	-187.18211999999997	-236.09619999999995	642.4449699999999	-203.54721
46	0.188	-78.98710000000028	906.651	56.2195	-17.912559999999758	881.4499900000001	-9.945390000000002	-104.13994000000002	480.62099	-94.95632	-103.96064999999999	99.35507000000001	-174.17603000000003	-178.22770000000037	23.352810000000005	-15.284020000000002	-130.77255999999943	903.86267	134.82129	-203.72139999999945	502.02649999999994	227.96077	-259.00188999999955	68.83745	293.98306	-389.7814700000008	-8.665199999999999	178.10100999999997	-122.55549999999948	1031.8752399999998	2.3964600000000007	-173.89386999999988	1098.02718	-46.92223	-235.6196799999998	1158.02596	-100.03078999999998	-301.9149299999999	1206.81619	-151.6999	-372.99014999999963	1259.1893200000002	-206.28258	-438.53863	1307.1233999999997	-254.88383999999996	-555.8406400000003	1405.9404700000002	-298.65225	-335.99362999999994	1232.7035800000003	-214.65831	-329.99554999999964	1162.5896800000003	-320.3992999999999	-366.77855999999974	914.7708799999999	-232.91240999999997	-405.5598799999998	672.3193100000002	-148.58346	-424.13200999999935	639.9205200000001	-162.80723	-454.19542	620.3734999999999	-154.41897000000003	-473.6868199999999	607.19424	-144.37443000000002	-488.69999000000007	596.57794	-132.40519999999998	-419.2992599999998	636.7473799999999	-150.11401	-440.8187200000002	591.5861999999998	-132.23695999999995	-463.04594	569.5265500000002	-114.09017000000006	-480.35218000000077	564.1056199999999	-104.48709999999994	-497.02903999999944	565.21297	-97.67102999999997	-414.9654099999998	639.943	-139.03365	-433.6085899999998	597.61999	-115.60516000000001	-457.2303299999994	574.12835	-94.39222999999998	-477.8061200000002	567.8664799999999	-82.12931000000003	-495.9060499999996	569.2134100000001	-74.34210000000002	-411.27559999999994	643.2518700000002	-131.68847	-424.5500599999996	607.8980300000002	-104.39444000000003	-444.4637699999994	588.08311	-84.49943999999999	-463.95226	582.39381	-71.92436000000004	-480.8008800000007	583.8264999999999	-64.24865999999997	-407.0201900000002	649.17172	-123.52870000000001	-416.31455000000005	620.0405200000001	-93.54883000000001	-431.1502099999998	605.3588199999999	-75.54338000000001	-444.8280100000002	601.78241	-65.36766	-459.44399000000067	603.38154	-57.99078000000003	-362.7766300000003	1251.9591500000001	-160.28209	-388.3714599999994	1240.2750799999997	-34.97898000000001	-320.7631300000003	992.3581000000001	-98.09091999999998	-255.73826000000008	743.8361099999998	-131.23299000000003	-287.9516100000001	721.43041	-138.79647999999997	-300.61932999999954	701.2668900000002	-166.88953	-305.2332900000001	685.75083	-186.7002099999999	-305.4800700000005	671.55463	-203.42654999999996	-276.9040300000006	712.92139	-138.49698	-288.9628899999998	665.2686899999999	-158.64674000000005	-291.58128000000033	638.3500600000002	-182.69908000000004	-292.5320300000003	629.94006	-201.39344	-292.8622400000004	628.59478	-219.39021000000002	-264.7652699999999	710.8671500000002	-138.94333999999998	-269.96290000000045	663.27523	-158.83539000000002	-271.1720699999996	633.79296	-185.08734000000004	-271.52827999999954	623.59447	-207.64432	-271.5051399999993	622.09716	-227.33747000000002	-255.91501999999946	710.54935	-138.64828999999992	-252.98853999999938	667.3802000000001	-155.93786999999998	-252.34946000000036	641.6481699999999	-178.79508	-251.79398000000037	631.7922699999999	-200.54031000000003	-251.34616000000005	630.37559	-219.05077000000003	-245.1012499999997	712.2135899999998	-138.48246999999998	-235.86679999999978	673.35286	-153.92178	-232.72630000000026	652.8816	-172.11272	-231.04951000000074	645.75748	-187.91947000000002	-229.92099999999937	644.53984	-204.28548
47	0.192	-78.98710000000028	906.651	56.2195	-17.657710000000407	881.54278	-9.744640000000002	-103.36388999999963	480.57464000000004	-94.62632	-103.72405999999955	99.31751	-173.88777	-178.01727000000028	23.32655	-15.00258	-131.08117999999922	903.7487200000003	134.61295999999996	-204.0275299999994	501.86776	227.56093999999996	-258.73891000000003	68.69139	294.13819	-389.5490399999999	-8.746279999999999	178.24718	-122.32203000000027	1031.96739	2.42248	-173.4436400000004	1098.2440100000001	-46.95396	-234.9432999999999	1158.36634	-100.185	-300.9695499999998	1207.34186	-152.02299999999997	-371.7688500000004	1259.9086699999998	-206.77782000000002	-437.0798900000009	1308.01174	-255.53152999999998	-554.4288299999998	1406.7585200000003	-299.33276	-334.69828999999936	1233.49688	-215.05920000000003	-328.0002400000003	1164.1921099999997	-321.29044	-364.8227399999996	916.38579	-233.78480000000002	-403.47023999999965	673.9328200000001	-149.39845999999997	-421.70867	641.41374	-163.77867999999998	-451.7944200000002	621.7558499999998	-155.73676999999998	-471.35927999999967	608.51708	-145.91582	-486.4832400000005	597.8662900000002	-134.11791999999997	-417.03108000000066	638.29619	-151.01376000000005	-438.5868899999996	593.0879300000001	-133.30025000000006	-460.9558299999999	570.9784499999998	-115.38977	-478.3640999999998	565.50643	-106.00250999999997	-495.1347800000003	566.5579299999999	-99.41152999999997	-412.8590000000004	641.54076	-139.88563	-431.62510999999995	599.1983099999999	-116.59078999999997	-455.4228599999997	575.65891	-95.62903999999997	-476.1319999999996	569.3385499999999	-83.62327999999997	-494.3395900000005	570.6259	-76.08080000000001	-409.28175999999985	644.8857	-132.50121000000001	-422.76177000000007	609.54656	-105.28901000000002	-442.85055999999986	589.69677	-85.60591	-462.47917999999936	583.9546499999999	-73.27515	-479.43447000000015	585.3330200000001	-65.82780000000002	-405.16132000000016	650.8462799999999	-124.30192	-414.72473999999966	621.7546	-94.36833999999999	-429.73349999999937	607.0554600000002	-76.52126999999996	-443.52941999999985	603.4456	-66.51828999999998	-458.2490600000001	604.99953	-59.34054000000003	-361.82178999999996	1252.4693699999998	-160.75228999999996	-388.46993999999995	1240.46842	-35.69896	-318.91802000000007	992.9988999999999	-98.45405999999997	-252.24251000000004	744.90336	-131.51141	-284.3856399999995	722.58915	-139.62414999999996	-296.75777000000016	702.6827299999999	-168.03051999999997	-301.16439999999966	687.34477	-188.02624000000006	-301.2370599999995	673.2962500000002	-204.87846	-273.3475700000008	714.06954	-139.27844	-285.2159499999998	666.60477	-159.97735000000003	-287.5880700000007	639.9004499999999	-184.29269999999997	-288.33930000000055	631.65572	-203.06959	-288.47306000000026	630.4688499999999	-221.08002999999997	-261.2059899999995	712.0102000000002	-139.60980999999998	-266.21633999999995	664.5987900000001	-159.97532000000004	-267.1568899999993	635.34919	-186.49716000000004	-267.27244000000064	625.34954	-209.14550000000003	-267.03436000000056	624.02528	-228.84960999999998	-252.35972000000038	711.6831799999999	-139.2206	-249.27208000000064	668.6654100000001	-156.85598999999993	-248.3992699999999	643.1346999999998	-179.93020999999996	-247.61185000000023	633.4698000000001	-201.75386	-246.9620500000001	632.2154500000001	-220.27004999999997	-241.54733000000033	713.3377899999998	-138.92167	-232.16957999999977	674.6072699999999	-154.59997000000004	-228.84321	654.2942600000001	-172.93471	-226.9978799999999	647.3080299999999	-188.78416	-225.69078999999965	646.2333599999997	-205.1469
48	0.196	-78.98710000000028	906.651	56.2195	-17.401209999999992	881.6432899999999	-9.54353	-102.57144999999946	480.53453	-94.30021999999998	-103.48723999999947	99.28686	-173.60267	-177.79688999999962	23.30490000000001	-14.72086	-131.39066999999977	903.6263399999999	134.40177	-204.32661000000007	501.70026000000007	227.16263000000004	-258.4642100000001	68.54126	294.31941	-389.31574999999975	-8.832510000000001	178.43247	-122.09212000000025	1032.0625700000005	2.45957	-172.9936800000005	1098.4675000000002	-46.97177	-233.4004100000002	1159.73384	-100.14987	-299.1473499999993	1208.89903	-152.16303	-369.6604900000002	1261.6639099999998	-207.0963	-434.72559999999976	1309.9396100000001	-256.00796999999994	-552.1279199999999	1408.61011	-299.83805	-332.5125200000002	1235.32983	-215.27763999999996	-325.0847100000001	1166.88348	-322.01572000000004	-361.3558299999995	918.89595	-234.79361999999998	-399.3263900000002	676.3954600000001	-150.23665999999997	-417.21210000000065	643.7483000000002	-164.76890000000003	-447.30337000000054	623.9614	-157.07144000000005	-466.9300999999996	610.6507	-147.47368000000006	-482.15525999999954	599.95528	-135.84758999999997	-412.6877999999997	640.68744	-151.93519999999998	-434.2507399999995	595.41839	-134.38638000000003	-456.7439200000008	573.24421	-116.71305000000001	-474.24706999999944	567.70978	-107.54129999999998	-491.1082099999994	568.69466	-101.17460999999997	-408.67894999999953	643.9818099999999	-140.76179	-427.54025999999976	601.6070100000001	-117.60305999999997	-451.4952400000002	578.0037399999999	-96.89373999999998	-472.3292499999998	571.6113300000002	-85.14492999999999	-490.6408599999995	572.82736	-77.84638000000001	-405.2160100000001	647.3638200000001	-133.33985999999996	-418.8781399999998	612.02883	-106.21322000000004	-439.12597000000005	592.13031	-86.74345	-458.8867200000004	586.32237	-74.65697999999998	-475.9453599999997	587.6354400000001	-67.43729999999994	-401.2336400000004	653.36626	-125.10297000000003	-411.0464499999998	624.3052999999999	-95.22030999999998	-426.21610000000055	609.5779400000001	-77.53324999999995	-440.1246199999996	605.92529	-67.70322999999996	-454.9451400000007	607.4243700000001	-60.72415000000001	-359.99049000000014	1254.00857	-161.04715999999993	-387.72252000000026	1241.6945100000003	-36.26022	-316.58814000000075	994.58804	-98.67118000000002	-249.29732000000058	746.65208	-131.67900999999998	-281.3593300000002	724.4333900000001	-140.35534	-293.41695999999956	704.7852799999998	-169.07506	-297.60334000000057	689.62603	-189.25356	-297.4913200000001	675.7254800000001	-206.22782000000007	-270.33140000000003	715.9029400000001	-139.95747999999998	-281.9914200000003	668.6297599999999	-161.20599	-284.1010299999998	642.14086	-185.77978999999996	-284.6417300000003	634.0612200000002	-204.63551000000007	-284.5693199999996	633.0319900000001	-222.65599999999998	-258.1881199999998	713.83762	-140.16742	-262.9943600000006	666.60983	-161.00332999999998	-263.6487699999998	637.59399	-187.78924000000006	-263.51047000000017	627.79288	-210.52407	-263.0468700000001	626.6407999999999	-230.23499000000007	-249.34712000000036	713.5006800000001	-139.67953	-246.08448000000044	670.6365099999999	-157.65417000000002	-244.96288000000004	645.3079399999999	-180.93942	-243.9309400000002	635.83368	-202.83635000000007	-243.06924000000072	634.74083	-221.35413	-238.53781999999956	715.14464	-139.24197999999998	-229.0052400000004	676.5458100000001	-155.14997	-225.48138000000017	656.3914700000003	-173.62240000000003	-223.45852999999988	649.54274	-189.51016999999993	-221.96421999999984	648.6102499999998	-205.8656
